<svg width="486" height="318" viewBox="0 0 486 318" fill="none" xmlns="http://www.w3.org/2000/svg">
<path d="M73.6578 73.504C72.3138 73.552 71.2578 73.192 70.4898 72.424C69.7218 71.656 69.3378 70.672 69.3378 69.472C69.3378 68.56 69.6258 67.768 70.2018 67.096C70.7298 66.376 71.5218 65.992 72.5778 65.944L74.7378 65.8C79.0098 65.512 81.1458 63.16 81.1458 58.744V26.344C81.1458 23.224 82.6818 21.664 85.7538 21.664C88.8258 21.664 90.3618 23.224 90.3618 26.344V58.672C90.3618 63.184 89.1618 66.688 86.7618 69.184C84.3618 71.68 80.8098 73.072 76.1058 73.36L73.6578 73.504ZM124.095 73.72C119.199 73.72 114.903 72.64 111.207 70.48C107.559 68.32 104.727 65.296 102.711 61.408C100.695 57.472 99.687 52.864 99.687 47.584C99.687 42.256 100.695 37.648 102.711 33.76C104.727 29.872 107.559 26.872 111.207 24.76C114.855 22.6 119.151 21.52 124.095 21.52C129.039 21.52 133.335 22.6 136.983 24.76C140.631 26.872 143.463 29.872 145.479 33.76C147.495 37.648 148.503 42.232 148.503 47.512C148.503 52.84 147.495 57.472 145.479 61.408C143.463 65.296 140.631 68.32 136.983 70.48C133.335 72.64 129.039 73.72 124.095 73.72ZM124.095 65.8C128.751 65.8 132.375 64.192 134.967 60.976C137.559 57.76 138.855 53.296 138.855 47.584C138.855 41.824 137.559 37.36 134.967 34.192C132.423 31.024 128.799 29.44 124.095 29.44C119.439 29.44 115.815 31.024 113.223 34.192C110.631 37.36 109.335 41.824 109.335 47.584C109.335 53.296 110.631 57.76 113.223 60.976C115.815 64.192 119.439 65.8 124.095 65.8ZM182.282 73.72C176.666 73.72 171.914 72.664 168.026 70.552C164.186 68.44 161.258 65.44 159.242 61.552C157.226 57.664 156.218 53.056 156.218 47.728C156.218 42.352 157.25 37.72 159.314 33.832C161.378 29.896 164.354 26.872 168.242 24.76C172.13 22.6 176.786 21.52 182.21 21.52C184.898 21.52 187.586 21.856 190.274 22.528C193.01 23.152 195.578 24.232 197.978 25.768C199.034 26.392 199.634 27.232 199.778 28.288C199.97 29.296 199.826 30.256 199.346 31.168C198.866 32.08 198.146 32.728 197.186 33.112C196.226 33.448 195.17 33.28 194.018 32.608C192.194 31.552 190.346 30.784 188.474 30.304C186.602 29.824 184.514 29.584 182.21 29.584C176.834 29.584 172.754 31.144 169.97 34.264C167.234 37.384 165.866 41.872 165.866 47.728C165.866 53.632 167.282 58.12 170.114 61.192C172.946 64.264 177.146 65.8 182.714 65.8C184.298 65.8 185.906 65.68 187.538 65.44C189.218 65.152 190.874 64.744 192.506 64.216V52.408H184.586C182.09 52.408 180.842 51.256 180.842 48.952C180.842 46.696 182.09 45.568 184.586 45.568H196.466C198.962 45.568 200.21 46.816 200.21 49.312V66.808C200.21 69.016 199.346 70.432 197.618 71.056C195.506 71.824 193.082 72.472 190.346 73C187.61 73.48 184.922 73.72 182.282 73.72ZM211.394 73.576C209.714 73.576 208.514 73 207.794 71.848C207.074 70.696 207.098 69.304 207.866 67.672L226.874 25.552C227.498 24.16 228.242 23.176 229.106 22.6C230.018 21.976 231.05 21.664 232.202 21.664C233.306 21.664 234.29 21.976 235.154 22.6C236.066 23.176 236.834 24.16 237.458 25.552L256.538 67.672C257.306 69.352 257.354 70.768 256.682 71.92C256.01 73.024 254.858 73.576 253.226 73.576C251.882 73.576 250.826 73.264 250.058 72.64C249.338 71.968 248.69 70.96 248.114 69.616L244.514 61.264H219.746L216.218 69.616C215.594 71.008 214.946 72.016 214.274 72.64C213.602 73.264 212.642 73.576 211.394 73.576ZM232.058 32.248L222.914 53.92H241.346L232.202 32.248H232.058ZM269.364 73C266.1 73 264.468 71.368 264.468 68.104V27.136C264.468 23.872 266.1 22.24 269.364 22.24H283.332C291.828 22.24 298.38 24.424 302.988 28.792C307.644 33.16 309.972 39.424 309.972 47.584C309.972 55.696 307.644 61.96 302.988 66.376C298.38 70.792 291.828 73 283.332 73H269.364ZM273.684 65.368H282.756C294.468 65.368 300.324 59.44 300.324 47.584C300.324 35.776 294.468 29.872 282.756 29.872H273.684V65.368ZM342.064 73.72C337.168 73.72 332.872 72.64 329.176 70.48C325.528 68.32 322.696 65.296 320.68 61.408C318.664 57.472 317.656 52.864 317.656 47.584C317.656 42.256 318.664 37.648 320.68 33.76C322.696 29.872 325.528 26.872 329.176 24.76C332.824 22.6 337.12 21.52 342.064 21.52C347.008 21.52 351.304 22.6 354.952 24.76C358.6 26.872 361.432 29.872 363.448 33.76C365.464 37.648 366.472 42.232 366.472 47.512C366.472 52.84 365.464 57.472 363.448 61.408C361.432 65.296 358.6 68.32 354.952 70.48C351.304 72.64 347.008 73.72 342.064 73.72ZM342.064 65.8C346.72 65.8 350.344 64.192 352.936 60.976C355.528 57.76 356.824 53.296 356.824 47.584C356.824 41.824 355.528 37.36 352.936 34.192C350.392 31.024 346.768 29.44 342.064 29.44C337.408 29.44 333.784 31.024 331.192 34.192C328.6 37.36 327.304 41.824 327.304 47.584C327.304 53.296 328.6 57.76 331.192 60.976C333.784 64.192 337.408 65.8 342.064 65.8ZM380.451 73.576C377.379 73.576 375.843 71.992 375.843 68.824V26.92C375.843 23.8 377.403 22.24 380.523 22.24H397.875C403.443 22.24 407.739 23.584 410.763 26.272C413.787 28.912 415.299 32.632 415.299 37.432C415.299 41.224 414.315 44.368 412.347 46.864C410.379 49.312 407.547 50.968 403.851 51.832C406.299 52.6 408.315 54.448 409.899 57.376L415.299 67.384C416.115 68.92 416.259 70.336 415.731 71.632C415.251 72.928 414.027 73.576 412.059 73.576C410.763 73.576 409.707 73.312 408.891 72.784C408.075 72.208 407.355 71.344 406.731 70.192L399.459 56.8C398.595 55.168 397.563 54.088 396.363 53.56C395.211 52.984 393.723 52.696 391.899 52.696H385.059V68.824C385.059 71.992 383.523 73.576 380.451 73.576ZM385.059 45.856H396.291C403.011 45.856 406.371 43.12 406.371 37.648C406.371 32.224 403.011 29.512 396.291 29.512H385.059V45.856Z" fill="#8AC4D0"/>
<path d="M68.6558 301.504C67.3118 301.552 66.2558 301.192 65.4878 300.424C64.7197 299.656 64.3357 298.672 64.3357 297.472C64.3357 296.56 64.6237 295.768 65.1997 295.096C65.7278 294.376 66.5198 293.992 67.5758 293.944L69.7358 293.8C74.0078 293.512 76.1438 291.16 76.1438 286.744V254.344C76.1438 251.224 77.6798 249.664 80.7518 249.664C83.8238 249.664 85.3598 251.224 85.3598 254.344V286.672C85.3598 291.184 84.1598 294.688 81.7598 297.184C79.3598 299.68 75.8078 301.072 71.1038 301.36L68.6558 301.504ZM119.093 301.72C114.197 301.72 109.901 300.64 106.205 298.48C102.557 296.32 99.7249 293.296 97.7089 289.408C95.6929 285.472 94.6849 280.864 94.6849 275.584C94.6849 270.256 95.6929 265.648 97.7089 261.76C99.7249 257.872 102.557 254.872 106.205 252.76C109.853 250.6 114.149 249.52 119.093 249.52C124.037 249.52 128.333 250.6 131.981 252.76C135.629 254.872 138.461 257.872 140.477 261.76C142.493 265.648 143.501 270.232 143.501 275.512C143.501 280.84 142.493 285.472 140.477 289.408C138.461 293.296 135.629 296.32 131.981 298.48C128.333 300.64 124.037 301.72 119.093 301.72ZM119.093 293.8C123.749 293.8 127.373 292.192 129.965 288.976C132.557 285.76 133.853 281.296 133.853 275.584C133.853 269.824 132.557 265.36 129.965 262.192C127.421 259.024 123.797 257.44 119.093 257.44C114.437 257.44 110.813 259.024 108.221 262.192C105.629 265.36 104.333 269.824 104.333 275.584C104.333 281.296 105.629 285.76 108.221 288.976C110.813 292.192 114.437 293.8 119.093 293.8ZM177.28 301.72C171.664 301.72 166.912 300.664 163.024 298.552C159.184 296.44 156.256 293.44 154.24 289.552C152.224 285.664 151.216 281.056 151.216 275.728C151.216 270.352 152.248 265.72 154.312 261.832C156.376 257.896 159.352 254.872 163.24 252.76C167.128 250.6 171.784 249.52 177.208 249.52C179.896 249.52 182.584 249.856 185.272 250.528C188.008 251.152 190.576 252.232 192.976 253.768C194.032 254.392 194.632 255.232 194.776 256.288C194.968 257.296 194.824 258.256 194.344 259.168C193.864 260.08 193.144 260.728 192.184 261.112C191.224 261.448 190.168 261.28 189.016 260.608C187.192 259.552 185.344 258.784 183.472 258.304C181.6 257.824 179.512 257.584 177.208 257.584C171.832 257.584 167.752 259.144 164.968 262.264C162.232 265.384 160.864 269.872 160.864 275.728C160.864 281.632 162.28 286.12 165.112 289.192C167.944 292.264 172.144 293.8 177.712 293.8C179.296 293.8 180.904 293.68 182.536 293.44C184.216 293.152 185.872 292.744 187.504 292.216V280.408H179.584C177.088 280.408 175.84 279.256 175.84 276.952C175.84 274.696 177.088 273.568 179.584 273.568H191.464C193.96 273.568 195.208 274.816 195.208 277.312V294.808C195.208 297.016 194.344 298.432 192.616 299.056C190.504 299.824 188.08 300.472 185.344 301C182.608 301.48 179.92 301.72 177.28 301.72ZM206.392 301.576C204.712 301.576 203.512 301 202.792 299.848C202.072 298.696 202.096 297.304 202.864 295.672L221.872 253.552C222.496 252.16 223.24 251.176 224.104 250.6C225.016 249.976 226.048 249.664 227.2 249.664C228.304 249.664 229.288 249.976 230.152 250.6C231.064 251.176 231.832 252.16 232.456 253.552L251.536 295.672C252.304 297.352 252.352 298.768 251.68 299.92C251.008 301.024 249.856 301.576 248.224 301.576C246.88 301.576 245.824 301.264 245.056 300.64C244.336 299.968 243.688 298.96 243.112 297.616L239.512 289.264H214.744L211.216 297.616C210.592 299.008 209.944 300.016 209.272 300.64C208.6 301.264 207.64 301.576 206.392 301.576ZM227.056 260.248L217.912 281.92H236.344L227.2 260.248H227.056ZM264.362 301C261.098 301 259.466 299.368 259.466 296.104V255.136C259.466 251.872 261.098 250.24 264.362 250.24H278.33C286.826 250.24 293.378 252.424 297.986 256.792C302.642 261.16 304.97 267.424 304.97 275.584C304.97 283.696 302.642 289.96 297.986 294.376C293.378 298.792 286.826 301 278.33 301H264.362ZM268.682 293.368H277.754C289.466 293.368 295.322 287.44 295.322 275.584C295.322 263.776 289.466 257.872 277.754 257.872H268.682V293.368ZM337.062 301.72C332.166 301.72 327.87 300.64 324.174 298.48C320.526 296.32 317.694 293.296 315.678 289.408C313.662 285.472 312.654 280.864 312.654 275.584C312.654 270.256 313.662 265.648 315.678 261.76C317.694 257.872 320.526 254.872 324.174 252.76C327.822 250.6 332.118 249.52 337.062 249.52C342.006 249.52 346.302 250.6 349.95 252.76C353.598 254.872 356.43 257.872 358.446 261.76C360.462 265.648 361.47 270.232 361.47 275.512C361.47 280.84 360.462 285.472 358.446 289.408C356.43 293.296 353.598 296.32 349.95 298.48C346.302 300.64 342.006 301.72 337.062 301.72ZM337.062 293.8C341.718 293.8 345.342 292.192 347.934 288.976C350.526 285.76 351.822 281.296 351.822 275.584C351.822 269.824 350.526 265.36 347.934 262.192C345.39 259.024 341.766 257.44 337.062 257.44C332.406 257.44 328.782 259.024 326.19 262.192C323.598 265.36 322.302 269.824 322.302 275.584C322.302 281.296 323.598 285.76 326.19 288.976C328.782 292.192 332.406 293.8 337.062 293.8ZM375.449 301.576C372.377 301.576 370.841 299.992 370.841 296.824V254.92C370.841 251.8 372.401 250.24 375.521 250.24H392.873C398.441 250.24 402.737 251.584 405.761 254.272C408.785 256.912 410.297 260.632 410.297 265.432C410.297 269.224 409.313 272.368 407.345 274.864C405.377 277.312 402.545 278.968 398.849 279.832C401.297 280.6 403.313 282.448 404.897 285.376L410.297 295.384C411.113 296.92 411.257 298.336 410.729 299.632C410.249 300.928 409.025 301.576 407.057 301.576C405.761 301.576 404.705 301.312 403.889 300.784C403.073 300.208 402.353 299.344 401.729 298.192L394.457 284.8C393.593 283.168 392.561 282.088 391.361 281.56C390.209 280.984 388.721 280.696 386.897 280.696H380.057V296.824C380.057 299.992 378.521 301.576 375.449 301.576ZM380.057 273.856H391.289C398.009 273.856 401.369 271.12 401.369 265.648C401.369 260.224 398.009 257.512 391.289 257.512H380.057V273.856Z" fill="#8AC4D0"/>
<path d="M226.085 185.576C224.885 185.576 223.901 185.264 223.133 184.64C222.365 183.968 221.909 183.152 221.765 182.192C221.669 181.184 222.005 180.176 222.773 179.168L237.749 159.152L223.564 140.144C222.797 139.088 222.461 138.08 222.557 137.12C222.653 136.112 223.085 135.296 223.853 134.672C224.621 134 225.581 133.664 226.733 133.664C228.509 133.664 230.117 134.648 231.557 136.616L243.005 152.456L254.453 136.616C255.893 134.648 257.525 133.664 259.349 133.664C260.549 133.664 261.533 133.976 262.301 134.6C263.069 135.224 263.501 136.04 263.597 137.048C263.693 138.008 263.333 139.04 262.517 140.144L248.333 159.152L263.237 179.168C264.005 180.176 264.341 181.184 264.245 182.192C264.149 183.152 263.717 183.968 262.949 184.64C262.181 185.264 261.173 185.576 259.925 185.576C258.197 185.576 256.589 184.568 255.101 182.552L243.005 165.992L230.981 182.552C229.493 184.568 227.861 185.576 226.085 185.576Z" fill="#8AC4D0"/>
</svg>
