<svg width="540" height="320" viewBox="0 0 540 320" fill="none" xmlns="http://www.w3.org/2000/svg">
<path d="M96.6578 73.504C95.3138 73.552 94.2578 73.192 93.4898 72.424C92.7218 71.656 92.3378 70.672 92.3378 69.472C92.3378 68.56 92.6258 67.768 93.2018 67.096C93.7298 66.376 94.5218 65.992 95.5778 65.944L97.7378 65.8C102.01 65.512 104.146 63.16 104.146 58.744V26.344C104.146 23.224 105.682 21.664 108.754 21.664C111.826 21.664 113.362 23.224 113.362 26.344V58.672C113.362 63.184 112.162 66.688 109.762 69.184C107.362 71.68 103.81 73.072 99.1058 73.36L96.6578 73.504ZM147.095 73.72C142.199 73.72 137.903 72.64 134.207 70.48C130.559 68.32 127.727 65.296 125.711 61.408C123.695 57.472 122.687 52.864 122.687 47.584C122.687 42.256 123.695 37.648 125.711 33.76C127.727 29.872 130.559 26.872 134.207 24.76C137.855 22.6 142.151 21.52 147.095 21.52C152.039 21.52 156.335 22.6 159.983 24.76C163.631 26.872 166.463 29.872 168.479 33.76C170.495 37.648 171.503 42.232 171.503 47.512C171.503 52.84 170.495 57.472 168.479 61.408C166.463 65.296 163.631 68.32 159.983 70.48C156.335 72.64 152.039 73.72 147.095 73.72ZM147.095 65.8C151.751 65.8 155.375 64.192 157.967 60.976C160.559 57.76 161.855 53.296 161.855 47.584C161.855 41.824 160.559 37.36 157.967 34.192C155.423 31.024 151.799 29.44 147.095 29.44C142.439 29.44 138.815 31.024 136.223 34.192C133.631 37.36 132.335 41.824 132.335 47.584C132.335 53.296 133.631 57.76 136.223 60.976C138.815 64.192 142.439 65.8 147.095 65.8ZM205.282 73.72C199.666 73.72 194.914 72.664 191.026 70.552C187.186 68.44 184.258 65.44 182.242 61.552C180.226 57.664 179.218 53.056 179.218 47.728C179.218 42.352 180.25 37.72 182.314 33.832C184.378 29.896 187.354 26.872 191.242 24.76C195.13 22.6 199.786 21.52 205.21 21.52C207.898 21.52 210.586 21.856 213.274 22.528C216.01 23.152 218.578 24.232 220.978 25.768C222.034 26.392 222.634 27.232 222.778 28.288C222.97 29.296 222.826 30.256 222.346 31.168C221.866 32.08 221.146 32.728 220.186 33.112C219.226 33.448 218.17 33.28 217.018 32.608C215.194 31.552 213.346 30.784 211.474 30.304C209.602 29.824 207.514 29.584 205.21 29.584C199.834 29.584 195.754 31.144 192.97 34.264C190.234 37.384 188.866 41.872 188.866 47.728C188.866 53.632 190.282 58.12 193.114 61.192C195.946 64.264 200.146 65.8 205.714 65.8C207.298 65.8 208.906 65.68 210.538 65.44C212.218 65.152 213.874 64.744 215.506 64.216V52.408H207.586C205.09 52.408 203.842 51.256 203.842 48.952C203.842 46.696 205.09 45.568 207.586 45.568H219.466C221.962 45.568 223.21 46.816 223.21 49.312V66.808C223.21 69.016 222.346 70.432 220.618 71.056C218.506 71.824 216.082 72.472 213.346 73C210.61 73.48 207.922 73.72 205.282 73.72ZM234.394 73.576C232.714 73.576 231.514 73 230.794 71.848C230.074 70.696 230.098 69.304 230.866 67.672L249.874 25.552C250.498 24.16 251.242 23.176 252.106 22.6C253.018 21.976 254.05 21.664 255.202 21.664C256.306 21.664 257.29 21.976 258.154 22.6C259.066 23.176 259.834 24.16 260.458 25.552L279.538 67.672C280.306 69.352 280.354 70.768 279.682 71.92C279.01 73.024 277.858 73.576 276.226 73.576C274.882 73.576 273.826 73.264 273.058 72.64C272.338 71.968 271.69 70.96 271.114 69.616L267.514 61.264H242.746L239.218 69.616C238.594 71.008 237.946 72.016 237.274 72.64C236.602 73.264 235.642 73.576 234.394 73.576ZM255.058 32.248L245.914 53.92H264.346L255.202 32.248H255.058ZM292.364 73C289.1 73 287.468 71.368 287.468 68.104V27.136C287.468 23.872 289.1 22.24 292.364 22.24H306.332C314.828 22.24 321.38 24.424 325.988 28.792C330.644 33.16 332.972 39.424 332.972 47.584C332.972 55.696 330.644 61.96 325.988 66.376C321.38 70.792 314.828 73 306.332 73H292.364ZM296.684 65.368H305.756C317.468 65.368 323.324 59.44 323.324 47.584C323.324 35.776 317.468 29.872 305.756 29.872H296.684V65.368ZM365.064 73.72C360.168 73.72 355.872 72.64 352.176 70.48C348.528 68.32 345.696 65.296 343.68 61.408C341.664 57.472 340.656 52.864 340.656 47.584C340.656 42.256 341.664 37.648 343.68 33.76C345.696 29.872 348.528 26.872 352.176 24.76C355.824 22.6 360.12 21.52 365.064 21.52C370.008 21.52 374.304 22.6 377.952 24.76C381.6 26.872 384.432 29.872 386.448 33.76C388.464 37.648 389.472 42.232 389.472 47.512C389.472 52.84 388.464 57.472 386.448 61.408C384.432 65.296 381.6 68.32 377.952 70.48C374.304 72.64 370.008 73.72 365.064 73.72ZM365.064 65.8C369.72 65.8 373.344 64.192 375.936 60.976C378.528 57.76 379.824 53.296 379.824 47.584C379.824 41.824 378.528 37.36 375.936 34.192C373.392 31.024 369.768 29.44 365.064 29.44C360.408 29.44 356.784 31.024 354.192 34.192C351.6 37.36 350.304 41.824 350.304 47.584C350.304 53.296 351.6 57.76 354.192 60.976C356.784 64.192 360.408 65.8 365.064 65.8ZM403.451 73.576C400.379 73.576 398.843 71.992 398.843 68.824V26.92C398.843 23.8 400.403 22.24 403.523 22.24H420.875C426.443 22.24 430.739 23.584 433.763 26.272C436.787 28.912 438.299 32.632 438.299 37.432C438.299 41.224 437.315 44.368 435.347 46.864C433.379 49.312 430.547 50.968 426.851 51.832C429.299 52.6 431.315 54.448 432.899 57.376L438.299 67.384C439.115 68.92 439.259 70.336 438.731 71.632C438.251 72.928 437.027 73.576 435.059 73.576C433.763 73.576 432.707 73.312 431.891 72.784C431.075 72.208 430.355 71.344 429.731 70.192L422.459 56.8C421.595 55.168 420.563 54.088 419.363 53.56C418.211 52.984 416.723 52.696 414.899 52.696H408.059V68.824C408.059 71.992 406.523 73.576 403.451 73.576ZM408.059 45.856H419.291C426.011 45.856 429.371 43.12 429.371 37.648C429.371 32.224 426.011 29.512 419.291 29.512H408.059V45.856Z" fill="#28527A"/>
<path d="M39.2498 303.72C33.9698 303.72 29.4338 302.664 25.6418 300.552C21.8978 298.392 19.0178 295.368 17.0018 291.48C14.9858 287.544 13.9778 282.912 13.9778 277.584C13.9778 272.256 14.9858 267.648 17.0018 263.76C19.0178 259.872 21.8978 256.872 25.6418 254.76C29.4338 252.6 33.9698 251.52 39.2498 251.52C41.8898 251.52 44.4818 251.856 47.0258 252.528C49.5698 253.2 51.8018 254.16 53.7218 255.408C54.9698 256.224 55.7138 257.208 55.9538 258.36C56.1938 259.464 56.0498 260.496 55.5218 261.456C54.9938 262.368 54.2018 262.992 53.1458 263.328C52.0898 263.616 50.9138 263.328 49.6178 262.464C48.1298 261.504 46.5218 260.808 44.7938 260.376C43.0658 259.944 41.3138 259.728 39.5378 259.728C34.4018 259.728 30.4898 261.288 27.8018 264.408C25.1138 267.48 23.7698 271.872 23.7698 277.584C23.7698 283.296 25.1138 287.712 27.8018 290.832C30.4898 293.952 34.4018 295.512 39.5378 295.512C41.3618 295.512 43.1618 295.296 44.9378 294.864C46.7138 294.384 48.3938 293.664 49.9778 292.704C51.2738 291.888 52.4258 291.624 53.4338 291.912C54.4418 292.2 55.1858 292.8 55.6658 293.712C56.1938 294.576 56.3618 295.536 56.1698 296.592C55.9778 297.648 55.3298 298.584 54.2258 299.4C52.3058 300.792 50.0018 301.872 47.3138 302.64C44.6738 303.36 41.9858 303.72 39.2498 303.72ZM85.6358 303.72C80.7398 303.72 76.4438 302.64 72.7478 300.48C69.0998 298.32 66.2678 295.296 64.2518 291.408C62.2358 287.472 61.2278 282.864 61.2278 277.584C61.2278 272.256 62.2358 267.648 64.2518 263.76C66.2678 259.872 69.0998 256.872 72.7478 254.76C76.3958 252.6 80.6918 251.52 85.6358 251.52C90.5798 251.52 94.8758 252.6 98.5238 254.76C102.172 256.872 105.004 259.872 107.02 263.76C109.036 267.648 110.044 272.232 110.044 277.512C110.044 282.84 109.036 287.472 107.02 291.408C105.004 295.296 102.172 298.32 98.5238 300.48C94.8758 302.64 90.5798 303.72 85.6358 303.72ZM85.6358 295.8C90.2918 295.8 93.9158 294.192 96.5078 290.976C99.0998 287.76 100.396 283.296 100.396 277.584C100.396 271.824 99.0998 267.36 96.5078 264.192C93.9638 261.024 90.3398 259.44 85.6358 259.44C80.9798 259.44 77.3558 261.024 74.7638 264.192C72.1718 267.36 70.8758 271.824 70.8758 277.584C70.8758 283.296 72.1718 287.76 74.7638 290.976C77.3558 294.192 80.9798 295.8 85.6358 295.8ZM123.735 303.576C120.951 303.576 119.559 302.136 119.559 299.256V255.984C119.559 253.104 120.999 251.664 123.879 251.664C125.079 251.664 126.015 251.904 126.687 252.384C127.407 252.816 128.055 253.584 128.631 254.688L145.263 285.432L161.895 254.688C162.471 253.584 163.095 252.816 163.767 252.384C164.439 251.904 165.375 251.664 166.575 251.664C169.359 251.664 170.751 253.104 170.751 255.984V299.256C170.751 302.136 169.359 303.576 166.575 303.576C163.791 303.576 162.399 302.136 162.399 299.256V268.8L148.863 293.496C148.383 294.312 147.879 294.912 147.351 295.296C146.823 295.68 146.103 295.872 145.191 295.872C144.279 295.872 143.535 295.68 142.959 295.296C142.383 294.864 141.879 294.264 141.447 293.496L127.911 268.944V299.256C127.911 302.136 126.519 303.576 123.735 303.576ZM186.531 303.576C183.459 303.576 181.923 301.992 181.923 298.824V256.92C181.923 253.8 183.483 252.24 186.603 252.24H203.955C209.523 252.24 213.819 253.632 216.843 256.416C219.867 259.2 221.379 263.088 221.379 268.08C221.379 273.072 219.867 276.984 216.843 279.816C213.819 282.6 209.523 283.992 203.955 283.992H191.139V298.824C191.139 301.992 189.603 303.576 186.531 303.576ZM191.139 276.72H202.515C209.139 276.72 212.451 273.84 212.451 268.08C212.451 262.368 209.139 259.512 202.515 259.512H191.139V276.72ZM249.988 303.72C243.028 303.72 237.7 301.92 234.004 298.32C230.356 294.672 228.532 289.296 228.532 282.192V256.344C228.532 253.224 230.068 251.664 233.14 251.664C236.212 251.664 237.748 253.224 237.748 256.344V282.12C237.748 286.68 238.78 290.112 240.844 292.416C242.956 294.672 246.004 295.8 249.988 295.8C258.1 295.8 262.156 291.24 262.156 282.12V256.344C262.156 253.224 263.692 251.664 266.764 251.664C269.788 251.664 271.3 253.224 271.3 256.344V282.192C271.3 289.296 269.5 294.672 265.9 298.32C262.3 301.92 256.996 303.72 249.988 303.72ZM298.896 303.576C295.824 303.576 294.288 301.992 294.288 298.824V259.944H280.248C277.608 259.944 276.288 258.648 276.288 256.056C276.288 253.512 277.608 252.24 280.248 252.24H317.544C320.184 252.24 321.504 253.512 321.504 256.056C321.504 258.648 320.184 259.944 317.544 259.944H303.504V298.824C303.504 301.992 301.968 303.576 298.896 303.576ZM321.646 303.576C319.966 303.576 318.766 303 318.046 301.848C317.326 300.696 317.35 299.304 318.118 297.672L337.126 255.552C337.75 254.16 338.494 253.176 339.358 252.6C340.27 251.976 341.302 251.664 342.454 251.664C343.558 251.664 344.542 251.976 345.406 252.6C346.318 253.176 347.086 254.16 347.71 255.552L366.79 297.672C367.558 299.352 367.606 300.768 366.934 301.92C366.262 303.024 365.11 303.576 363.478 303.576C362.134 303.576 361.078 303.264 360.31 302.64C359.59 301.968 358.942 300.96 358.366 299.616L354.766 291.264H329.998L326.47 299.616C325.846 301.008 325.198 302.016 324.526 302.64C323.854 303.264 322.894 303.576 321.646 303.576ZM342.31 262.248L333.166 283.92H351.598L342.454 262.248H342.31ZM379.616 303C376.352 303 374.72 301.368 374.72 298.104V257.136C374.72 253.872 376.352 252.24 379.616 252.24H393.584C402.08 252.24 408.632 254.424 413.24 258.792C417.896 263.16 420.224 269.424 420.224 277.584C420.224 285.696 417.896 291.96 413.24 296.376C408.632 300.792 402.08 303 393.584 303H379.616ZM383.936 295.368H393.008C404.72 295.368 410.576 289.44 410.576 277.584C410.576 265.776 404.72 259.872 393.008 259.872H383.936V295.368ZM452.316 303.72C447.42 303.72 443.124 302.64 439.428 300.48C435.78 298.32 432.948 295.296 430.932 291.408C428.916 287.472 427.908 282.864 427.908 277.584C427.908 272.256 428.916 267.648 430.932 263.76C432.948 259.872 435.78 256.872 439.428 254.76C443.076 252.6 447.372 251.52 452.316 251.52C457.26 251.52 461.556 252.6 465.204 254.76C468.852 256.872 471.684 259.872 473.7 263.76C475.716 267.648 476.724 272.232 476.724 277.512C476.724 282.84 475.716 287.472 473.7 291.408C471.684 295.296 468.852 298.32 465.204 300.48C461.556 302.64 457.26 303.72 452.316 303.72ZM452.316 295.8C456.972 295.8 460.596 294.192 463.188 290.976C465.78 287.76 467.076 283.296 467.076 277.584C467.076 271.824 465.78 267.36 463.188 264.192C460.644 261.024 457.02 259.44 452.316 259.44C447.66 259.44 444.036 261.024 441.444 264.192C438.852 267.36 437.556 271.824 437.556 277.584C437.556 283.296 438.852 287.76 441.444 290.976C444.036 294.192 447.66 295.8 452.316 295.8ZM490.703 303.576C487.631 303.576 486.095 301.992 486.095 298.824V256.92C486.095 253.8 487.655 252.24 490.775 252.24H508.127C513.695 252.24 517.991 253.584 521.015 256.272C524.039 258.912 525.551 262.632 525.551 267.432C525.551 271.224 524.567 274.368 522.599 276.864C520.631 279.312 517.799 280.968 514.103 281.832C516.551 282.6 518.567 284.448 520.151 287.376L525.551 297.384C526.367 298.92 526.511 300.336 525.983 301.632C525.503 302.928 524.279 303.576 522.311 303.576C521.015 303.576 519.959 303.312 519.143 302.784C518.327 302.208 517.607 301.344 516.983 300.192L509.711 286.8C508.847 285.168 507.815 284.088 506.615 283.56C505.463 282.984 503.975 282.696 502.151 282.696H495.311V298.824C495.311 301.992 493.775 303.576 490.703 303.576ZM495.311 275.856H506.543C513.263 275.856 516.623 273.12 516.623 267.648C516.623 262.224 513.263 259.512 506.543 259.512H495.311V275.856Z" fill="#28527A"/>
<path d="M249.085 185.576C247.885 185.576 246.901 185.264 246.133 184.64C245.365 183.968 244.909 183.152 244.765 182.192C244.669 181.184 245.005 180.176 245.773 179.168L260.749 159.152L246.564 140.144C245.797 139.088 245.461 138.08 245.557 137.12C245.653 136.112 246.085 135.296 246.853 134.672C247.621 134 248.581 133.664 249.733 133.664C251.509 133.664 253.117 134.648 254.557 136.616L266.005 152.456L277.453 136.616C278.893 134.648 280.525 133.664 282.349 133.664C283.549 133.664 284.533 133.976 285.301 134.6C286.069 135.224 286.501 136.04 286.597 137.048C286.693 138.008 286.333 139.04 285.517 140.144L271.333 159.152L286.237 179.168C287.005 180.176 287.341 181.184 287.245 182.192C287.149 183.152 286.717 183.968 285.949 184.64C285.181 185.264 284.173 185.576 282.925 185.576C281.197 185.576 279.589 184.568 278.101 182.552L266.005 165.992L253.981 182.552C252.493 184.568 250.861 185.576 249.085 185.576Z" fill="#28527A"/>
</svg>
